<?xml version="1.0" standalone="no"?>
<!DOCTYPE svg PUBLIC "-//W3C//DTD SVG 20010904//EN"
 "http://www.w3.org/TR/2001/REC-SVG-20010904/DTD/svg10.dtd">
<svg version="1.0" xmlns="http://www.w3.org/2000/svg"
 width="3139.000000pt" height="3139.000000pt" viewBox="0 0 3139.000000 3139.000000"
 preserveAspectRatio="xMidYMid meet">
<metadata>
Created by potrace 1.14, written by Peter Selinger 2001-2017
</metadata>
<g transform="translate(0.000000,3139.000000) scale(0.100000,-0.100000)"
fill="#000000" stroke="none">
<path d="M26045 23744 c-66 -7 -1681 -234 -3590 -504 -1908 -270 -4091 -578
-4850 -685 -759 -108 -1569 -222 -1800 -255 -231 -33 -868 -123 -1415 -200
-547 -77 -1200 -169 -1450 -205 -250 -35 -1078 -152 -1840 -260 -762 -108
-1621 -229 -1910 -270 -289 -41 -878 -124 -1310 -185 -432 -61 -846 -119 -920
-130 -74 -11 -567 -80 -1095 -155 -528 -74 -1072 -151 -1210 -171 -532 -75
-807 -152 -1172 -329 -382 -184 -686 -401 -1007 -715 -483 -473 -817 -1004
-1038 -1649 -122 -358 -187 -698 -207 -1091 -12 -232 -3 -5825 10 -6020 51
-796 355 -1496 874 -2015 142 -142 245 -226 415 -340 136 -90 1054 -599 1265
-701 277 -134 538 -209 860 -250 151 -18 463 -21 618 -4 56 6 1578 223 3382
481 1804 258 3984 571 4845 694 8814 1262 13453 1928 13540 1946 593 116 1159
402 1650 835 725 639 1213 1530 1360 2484 46 301 45 214 45 3430 0 3364 5
3095 -61 3432 -163 838 -651 1558 -1329 1960 -144 86 -1023 554 -1190 634
-194 93 -423 167 -643 209 -237 45 -579 57 -827 29z m1540 -1048 c356 -52 664
-171 956 -367 531 -356 912 -975 1028 -1666 43 -254 42 -226 39 -3338 -4
-3258 -1 -3040 -58 -3350 -105 -560 -360 -1112 -726 -1570 -113 -141 -378
-406 -519 -519 -366 -292 -779 -495 -1207 -592 -126 -28 422 51 -7018 -1015
-3264 -467 -7694 -1102 -9845 -1410 -2151 -308 -4127 -591 -4392 -629 -592
-85 -720 -96 -931 -80 -339 24 -603 95 -893 239 -222 111 -407 246 -595 436
-419 424 -669 995 -723 1650 -15 187 -17 6009 -2 6150 76 691 332 1313 766
1855 459 575 1081 975 1747 1124 107 24 21646 3077 21840 3096 123 12 408 4
533 -14z"/>
<path d="M26965 21623 c-127 -12 -21561 -3052 -21662 -3072 -565 -116 -1086
-534 -1376 -1107 -121 -237 -189 -456 -222 -715 -14 -111 -15 -428 -13 -3094
l4 -2970 21 -115 c71 -372 214 -653 458 -895 297 -296 730 -448 1155 -406 63
7 3402 482 7420 1057 4018 575 8844 1265 10725 1534 1881 269 3457 496 3503
505 577 111 1107 534 1400 1120 76 151 126 284 167 450 70 275 65 65 68 3326
2 3196 5 3007 -54 3238 -159 622 -631 1058 -1232 1140 -73 10 -271 12 -362 4z
m59 -620 c43 -87 80 -195 103 -303 17 -81 18 -220 18 -3035 0 -2740 -1 -2956
-17 -3040 -68 -358 -214 -634 -464 -876 -91 -87 -238 -199 -264 -199 -6 0 -10
38 -10 104 0 307 -124 585 -338 755 -89 71 -1102 618 -1212 655 -96 32 -236
50 -323 42 -37 -3 -210 -26 -384 -51 -174 -24 -320 -42 -324 -39 -15 9 -11
390 4 402 6 5 368 60 802 121 704 100 801 116 893 147 482 160 822 648 822
1176 0 211 -44 379 -141 541 -58 96 -195 233 -284 284 -207 120 -1050 564
-1110 586 -166 59 -273 59 -670 3 -210 -30 -304 -39 -313 -32 -11 8 -13 46 -7
201 4 104 10 194 15 198 4 4 371 59 816 123 529 75 840 123 899 140 104 29
241 96 335 162 147 104 306 293 393 467 245 491 147 1066 -230 1342 -34 26
-60 49 -58 52 7 7 930 139 977 140 37 1 39 -1 72 -66z m-1455 -504 c213 -49
353 -253 338 -494 -16 -256 -180 -476 -417 -560 -23 -8 -470 -76 -994 -150
-962 -137 -1056 -152 -1132 -181 l-43 -16 -3 -572 -4 -571 -27 -80 c-69 -205
-205 -347 -394 -411 -67 -23 -90 -26 -164 -22 -192 11 -334 130 -393 327 -14
48 -16 143 -16 790 0 805 0 801 59 943 67 161 198 316 369 438 167 119 441
232 683 280 149 30 1973 288 2039 289 30 0 75 -4 99 -10z m-4594 -296 c-5 -10
-25 -67 -46 -128 -65 -186 -71 -243 -78 -675 l-6 -385 -42 82 c-143 276 -347
504 -606 676 -45 30 -163 98 -262 151 -183 99 -203 111 -193 121 6 7 1158 173
1207 174 28 1 32 -2 26 -16z m-1835 -633 c677 -60 1183 -461 1336 -1058 62
-241 11 -452 -151 -621 -179 -186 -413 -232 -608 -118 -91 54 -168 167 -202
298 -48 184 -182 311 -405 381 -67 20 -94 23 -250 23 -160 0 -183 -2 -275 -28
-112 -31 -253 -95 -347 -158 -35 -23 -102 -81 -149 -129 -68 -68 -95 -104
-128 -170 -23 -47 -46 -110 -51 -140 -7 -36 -9 -806 -8 -2210 l3 -2155 23 -58
c58 -142 227 -264 432 -312 352 -81 805 76 1023 354 70 89 101 152 131 266 31
113 55 170 105 244 75 110 187 193 314 232 98 30 229 24 309 -15 118 -56 204
-162 243 -301 50 -171 -37 -521 -199 -805 -320 -559 -880 -946 -1533 -1061
-171 -30 -456 -33 -613 -5 -327 57 -606 194 -822 404 -227 220 -358 475 -403
787 -21 147 -22 4466 -1 4625 72 539 414 1051 926 1386 386 252 874 381 1300
344z m-3210 -64 c0 -3 -24 -40 -54 -83 -29 -43 -65 -99 -81 -126 l-27 -47 -80
75 c-43 41 -92 82 -109 92 -60 35 -57 36 344 92 4 1 7 -1 7 -3z m-2929 -493
c-192 -520 -245 -659 -251 -667 -5 -5 -45 65 -90 155 -45 90 -102 194 -126
230 -45 69 -168 192 -223 225 -26 15 -39 32 -28 35 26 7 666 97 699 98 l47 1
-28 -77z m2232 -26 c117 -58 200 -162 238 -298 17 -61 15 -203 -4 -274 -24
-94 -753 -2050 -797 -2140 -89 -181 -247 -306 -426 -336 -223 -37 -441 114
-493 341 -14 60 -14 186 0 252 13 61 767 2095 803 2166 57 112 158 217 261
270 96 49 153 62 251 59 83 -3 99 -7 167 -40z m-5466 -404 c-15 -74 -14 -318
2 -398 8 -38 27 -107 42 -151 25 -72 405 -849 1308 -2679 l266 -540 5 -1410 5
-1410 28 -100 c52 -192 139 -338 273 -464 42 -39 75 -74 72 -76 -7 -7 -630
-96 -642 -92 -6 2 -10 79 -10 188 l-1 184 -72 325 c-39 179 -315 1446 -613
2815 -297 1370 -554 2539 -570 2599 -134 483 -426 856 -847 1082 -40 22 -75
44 -77 51 -3 7 24 15 82 23 48 7 220 31 382 55 162 24 314 43 336 44 l41 1
-10 -47z m2095 -24 c77 -17 164 -64 220 -120 44 -44 79 -109 305 -567 141
-284 304 -616 363 -737 59 -121 330 -670 601 -1220 l494 -1000 3 -1563 c2
-1744 7 -1627 -68 -1771 -72 -138 -193 -247 -335 -301 -86 -33 -226 -33 -308
-1 -114 45 -212 149 -259 274 l-23 62 -5 1445 c-5 1445 -5 1445 -26 1490 -12
25 -370 754 -796 1620 -426 866 -783 1600 -794 1630 -28 84 -24 232 9 335 94
288 370 477 619 424z m-3473 -489 c457 -47 818 -356 980 -839 17 -51 303
-1341 646 -2921 664 -3054 635 -2907 600 -3045 -23 -89 -87 -213 -145 -277
-61 -68 -168 -142 -247 -170 -169 -59 -344 -18 -464 109 -93 98 -86 74 -360
1329 -137 632 -253 1164 -256 1182 -3 19 -12 36 -19 39 -8 3 -210 -23 -451
-57 -389 -56 -444 -61 -499 -52 -217 36 -375 233 -374 470 1 264 195 527 440
596 30 8 188 34 350 57 162 23 299 45 303 49 8 7 -437 2080 -473 2200 -36 123
-113 205 -214 231 -161 40 -332 -74 -407 -271 -10 -28 -291 -1394 -624 -3036
-333 -1642 -613 -3007 -621 -3032 -86 -259 -367 -454 -596 -413 -87 15 -180
62 -237 119 -93 93 -149 249 -137 383 8 88 1198 5964 1236 6101 137 499 456
907 865 1108 132 65 281 113 401 129 70 10 102 13 180 19 12 1 67 -3 123 -8z
m-2751 -28 c-1 -4 -33 -68 -69 -142 -131 -265 -181 -421 -267 -845 -33 -159
-295 -1453 -583 -2875 -287 -1422 -526 -2589 -531 -2595 -4 -5 -8 1125 -8
2510 0 2733 -2 2616 55 2823 156 573 617 1009 1160 1096 240 39 248 40 243 28z
m15311 -147 c32 -72 104 -176 170 -247 l62 -67 -54 -69 c-148 -191 -240 -416
-267 -647 -6 -57 -10 -537 -10 -1295 -1 -1140 -2 -1204 -18 -1184 -9 12 -37
48 -62 79 -60 77 -153 151 -275 218 -464 256 -987 531 -1047 551 -325 109
-707 15 -979 -241 -37 -35 -69 -63 -73 -63 -3 0 -6 641 -6 1423 0 1380 1 1424
19 1441 18 16 41 5 507 -247 583 -315 610 -329 697 -356 431 -133 933 98 1202
554 25 41 45 77 45 79 0 14 53 116 60 116 5 0 18 -20 29 -45z m4531 -625 c220
-42 362 -224 363 -465 0 -112 -21 -195 -76 -299 -70 -132 -200 -246 -332 -291
-27 -9 -512 -83 -1077 -164 -564 -80 -1030 -150 -1035 -154 -4 -5 -9 -459 -11
-1009 -3 -1121 -9 -1033 71 -1068 88 -38 87 -38 1089 105 1066 153 1054 152
1171 97 163 -76 257 -234 257 -431 0 -112 -21 -195 -72 -294 -74 -142 -226
-270 -363 -306 -22 -5 -467 -72 -990 -147 -832 -120 -967 -137 -1085 -138
-151 -1 -244 13 -372 55 -360 117 -605 389 -685 761 -17 78 -18 173 -18 1458
0 1096 3 1388 13 1440 7 36 34 107 59 159 75 157 222 283 375 321 47 12 2594
378 2639 379 15 1 50 -4 79 -9z m-10016 -3750 c90 -444 258 -761 549 -1036
127 -120 246 -203 459 -319 98 -54 178 -101 178 -106 0 -5 -10 -11 -22 -14
-54 -12 -2281 -326 -2285 -322 -2 3 -4 760 -3 1684 l0 1680 -70 142 -70 142
26 9 c14 6 34 10 44 10 36 0 186 53 270 95 185 94 347 238 463 411 86 130 104
169 267 609 76 204 144 384 152 400 11 25 14 -234 19 -1635 5 -1527 7 -1672
23 -1750z m5540 -43 c75 -156 213 -338 338 -445 78 -66 209 -156 306 -207 64
-35 88 -55 64 -55 -4 0 -260 -36 -567 -80 -307 -44 -565 -80 -572 -80 -22 0
-15 15 47 112 131 201 243 454 308 694 20 74 37 134 38 134 2 0 18 -33 38 -73z
m-13283 -546 l174 -89 155 -714 c86 -392 164 -739 175 -772 23 -74 85 -195
131 -257 19 -26 71 -82 116 -124 44 -42 78 -78 76 -80 -10 -10 -1472 -215
-1479 -207 -6 6 450 2278 465 2317 3 8 7 15 9 15 2 0 82 -40 178 -89z m-3388
-2436 c26 -36 77 -88 112 -117 35 -29 60 -57 56 -61 -4 -4 -41 -9 -82 -10
l-74 -2 -42 84 c-38 78 -74 186 -89 271 -5 30 -1 26 33 -33 21 -37 60 -97 86
-132z"/>
</g>
</svg>
